<svg width="26" height="35" viewBox="0 0 26 35" fill="none" xmlns="http://www.w3.org/2000/svg">
<path d="M8.35085 27.0565C8.35085 27.0565 7.01579 27.8329 9.30101 28.0956C12.0695 28.4114 13.4844 28.3662 16.5354 27.7887C16.5354 27.7887 17.3376 28.2916 18.4577 28.7273C11.6184 31.6585 2.97885 28.5575 8.35085 27.0565Z" fill="#5382A1"/>
<path d="M7.51513 23.2314C7.51513 23.2314 6.01771 24.3399 8.30465 24.5764C11.262 24.8814 13.5975 24.9064 17.6389 24.1282C17.6389 24.1282 18.1979 24.6949 19.0769 25.0049C10.8077 27.4229 1.59729 25.1955 7.51513 23.2314" fill="#5382A1"/>
<path d="M14.5606 16.7429C16.2459 18.683 14.1178 20.429 14.1178 20.429C14.1178 20.429 18.3968 18.22 16.4317 15.4538C14.5963 12.8744 13.1887 11.5925 20.8085 7.1734C20.8085 7.1734 8.84802 10.1605 14.5606 16.7428" fill="#E76F00"/>
<path d="M23.6062 29.8858C23.6062 29.8858 24.5941 30.6998 22.518 31.3296C18.5703 32.5255 6.08704 32.8867 2.6192 31.3772C1.37266 30.835 3.71037 30.0824 4.44568 29.9244C5.21254 29.7581 5.65085 29.7892 5.65085 29.7892C4.26451 28.8125 -3.30986 31.7068 1.80348 32.5356C15.7481 34.797 27.2232 31.5173 23.6062 29.8858Z" fill="#5382A1"/>
<path d="M8.99266 19.2682C8.99266 19.2682 2.64299 20.7764 6.74417 21.324C8.47575 21.5558 11.9277 21.5034 15.1432 21.234C17.771 21.0124 20.4096 20.541 20.4096 20.541C20.4096 20.541 19.4831 20.9379 18.8127 21.3956C12.3646 23.0915 -0.0919619 22.3026 3.49412 20.5679C6.52688 19.1019 8.99276 19.2682 8.99276 19.2682" fill="#5382A1"/>
<path d="M20.3837 25.6352C26.9386 22.229 23.9078 18.9558 21.7925 19.3969C21.2739 19.5047 21.0428 19.5982 21.0428 19.5982C21.0428 19.5982 21.2353 19.2967 21.6029 19.1662C25.7877 17.6949 29.0062 23.5055 20.252 25.8068C20.252 25.8069 20.3534 25.7163 20.3837 25.6352Z" fill="#5382A1"/>
<path d="M16.4318 0.0375157C16.4318 0.0375157 20.062 3.66902 12.9888 9.25293C7.31683 13.7323 11.6954 16.2863 12.9864 19.2044C9.67559 16.2172 7.24582 13.5876 8.87595 11.1402C11.2684 7.54744 17.8964 5.80564 16.4318 0.0374146" fill="#E76F00"/>
<path d="M9.63686 34.8649C15.9287 35.2677 25.5904 34.6415 25.8192 31.6644C25.8192 31.6644 25.3794 32.7931 20.6194 33.6893C15.2492 34.6999 8.62591 34.5819 4.69751 33.9342C4.69761 33.9342 5.5017 34.5998 9.63696 34.8649" fill="#5382A1"/>
</svg>
