<svg width="22" height="30" viewBox="0 0 22 30" fill="none" xmlns="http://www.w3.org/2000/svg">
<path d="M21.2371 5.88086L19.3058 27.5174L10.624 29.9242L1.96626 27.5207L0.0368652 5.88086H21.2371Z" fill="#E44D26"/>
<path d="M10.6372 28.0845L17.6525 26.1396L19.3029 7.65015H10.6372V28.0845Z" fill="#F16529"/>
<path d="M6.88246 12.9584H10.637V10.3043H3.98193L4.04542 11.0163L4.69778 18.3302H10.637V15.6761H7.12504L6.88246 12.9584Z" fill="#EBEBEB"/>
<path d="M7.48067 19.6572H4.81641L5.18821 23.8245L10.6249 25.3336L10.6371 25.3303V22.569L10.6254 22.572L7.66965 21.7739L7.48067 19.6572V19.6572Z" fill="#EBEBEB"/>
<path d="M2.00952 0H3.35827V1.33255H4.5921V0H5.94093V4.03529H4.59218V2.68404H3.35836V4.03529H2.0096V0H2.00952Z" fill="black"/>
<path d="M7.7143 1.3382H6.5271V0H10.2513V1.3382H9.0633V4.03529H7.71455V1.3382H7.71447H7.7143Z" fill="black"/>
<path d="M10.8423 0H12.2486L13.1137 1.41789L13.978 0H15.3849V4.03529H14.0416V2.03518L13.1137 3.46994H13.0905L12.162 2.03518V4.03529H10.8423V0Z" fill="black"/>
<path d="M16.0562 0H17.4054V2.7015H19.3021V4.03529H16.0562V0H16.0562Z" fill="black"/>
<path d="M10.628 18.3302H13.8962L13.588 21.7723L10.6279 22.5712V25.3324L16.0689 23.8245L16.1088 23.3761L16.7326 16.3888L16.7973 15.6761H10.628V18.3302Z" fill="white"/>
<path d="M10.6279 12.9519V12.9584H17.0387L17.0919 12.3619L17.2129 11.0163L17.2763 10.3043H10.6279V12.952V12.9519Z" fill="white"/>
</svg>
