<svg width="22" height="30" viewBox="0 0 22 30" fill="none" xmlns="http://www.w3.org/2000/svg">
<path d="M10.624 29.9242L1.96626 27.5207L0.0368652 5.88086H21.2371L19.3058 27.5174L10.624 29.9242Z" fill="#264DE4"/>
<path d="M17.6525 26.1396L19.3029 7.65015H10.6372V28.0845L17.6525 26.1396Z" fill="#2965F1"/>
<path d="M4.45996 15.6761L4.6978 18.3302H10.6371V15.6761H4.45996Z" fill="#EBEBEB"/>
<path d="M3.98193 10.3043L4.22318 12.9584H10.637V10.3043H3.98193V10.3043Z" fill="#EBEBEB"/>
<path d="M10.6371 22.569L10.6254 22.572L7.66965 21.7739L7.48067 19.6572H4.81641L5.18821 23.8245L10.6249 25.3336L10.6371 25.3303V22.569Z" fill="#EBEBEB"/>
<path d="M5.02637 0H8.24077V1.34427H6.37063V2.68853H8.24094V4.03271H5.02637V0Z" fill="black"/>
<path d="M8.88363 0H12.0981V1.16892H10.2279V1.40269H12.0981V4.09122H8.88371V2.86371H10.7539V2.62994H8.88354V0H8.88363Z" fill="black"/>
<path d="M12.7412 0H15.9557V1.16892H14.0855V1.40269H15.9557V4.09122H12.7412V2.86371H14.6114V2.62994H12.7413V0H12.7412Z" fill="black"/>
<path d="M16.7973 15.6761L17.2764 10.3043H10.628V12.9584H14.3678L14.1263 15.6761H10.628V18.3302H13.8962L13.588 21.7723L10.6279 22.5712V25.3324L16.0689 23.8245L16.1088 23.3761L16.7326 16.3888L16.7973 15.6761Z" fill="white"/>
</svg>
